<svg xmlns="http://www.w3.org/2000/svg" width="600" height="900" viewBox="0 0 600 900" role="img" aria-labelledby="title desc">
  <title id="title">Harry Potter Epics</title>
  <desc id="desc">Stylized poster with a night-sky gradient and lightning motif.</desc>
  <defs>
    <linearGradient id="sky" x1="0" y1="0" x2="1" y2="1">
      <stop offset="0%" stop-color="#0b1026" />
      <stop offset="55%" stop-color="#1d2b5a" />
      <stop offset="100%" stop-color="#2f4b8f" />
    </linearGradient>
    <linearGradient id="glow" x1="0" y1="0" x2="0" y2="1">
      <stop offset="0%" stop-color="#fbbf24" stop-opacity="0.95" />
      <stop offset="100%" stop-color="#f59e0b" stop-opacity="0.2" />
    </linearGradient>
  </defs>
  <rect width="600" height="900" fill="url(#sky)" />
  <rect x="36" y="36" width="528" height="828" rx="26" fill="none" stroke="rgba(255,255,255,0.25)" stroke-width="2" />
  <circle cx="480" cy="140" r="90" fill="rgba(255,255,255,0.06)" />
  <circle cx="120" cy="220" r="70" fill="rgba(255,255,255,0.04)" />
  <path d="M320 140 L260 320 L330 320 L250 520 L370 300 L300 300 Z" fill="url(#glow)" />
  <g fill="#f8fafc" font-family="Georgia, 'Times New Roman', serif" text-anchor="middle">
    <text x="300" y="640" font-size="44" letter-spacing="2">HARRY POTTER</text>
    <text x="300" y="690" font-size="28" letter-spacing="6">EPICS</text>
  </g>
  <g fill="rgba(255,255,255,0.25)">
    <circle cx="90" cy="90" r="2" />
    <circle cx="210" cy="120" r="1.6" />
    <circle cx="160" cy="380" r="1.8" />
    <circle cx="430" cy="340" r="2.2" />
    <circle cx="520" cy="420" r="1.4" />
    <circle cx="260" cy="520" r="2" />
    <circle cx="110" cy="650" r="1.6" />
    <circle cx="520" cy="700" r="2" />
    <circle cx="420" cy="790" r="1.7" />
  </g>
</svg>
